<?xml version="1.0" standalone="no"?>
<!DOCTYPE svg PUBLIC "-//W3C//DTD SVG 20010904//EN"
 "http://www.w3.org/TR/2001/REC-SVG-20010904/DTD/svg10.dtd">
<svg version="1.0" xmlns="http://www.w3.org/2000/svg"
 width="500.000000pt" height="137.000000pt" viewBox="0 0 500.000000 137.000000"
 preserveAspectRatio="xMidYMid meet">
<metadata>
Created by potrace 1.15, written by Peter Selinger 2001-2017
</metadata>
<g transform="translate(0.000000,137.000000) scale(0.100000,-0.100000)"
fill="#000000" stroke="none">
<path d="M3236 1319 c-120 -28 -243 -134 -306 -263 -64 -129 -75 -186 -75
-376 0 -189 11 -247 74 -375 52 -105 128 -183 228 -232 70 -34 82 -37 186 -41
96 -4 121 -1 177 18 134 45 225 128 290 264 59 126 74 198 74 366 0 168 -15
240 -74 366 -91 191 -239 285 -443 283 -51 -1 -109 -5 -131 -10z m234 -186
c149 -48 233 -211 233 -453 0 -225 -65 -369 -197 -438 -44 -23 -63 -27 -137
-27 -76 0 -92 3 -144 30 -137 70 -205 241 -192 485 12 218 89 352 230 401 66
23 140 24 207 2z"/>
<path d="M4390 1311 c-73 -23 -95 -36 -147 -84 -67 -61 -95 -125 -101 -223 -8
-152 42 -246 165 -311 32 -17 117 -50 188 -73 161 -53 233 -88 273 -135 28
-31 32 -43 32 -91 0 -131 -93 -193 -277 -182 -91 5 -165 35 -251 100 l-54 40
-59 -58 c-32 -32 -59 -63 -59 -69 0 -35 155 -139 252 -170 64 -20 100 -25 186
-25 211 0 343 64 409 198 23 47 28 73 31 153 6 129 -12 185 -82 255 -61 60
-134 97 -306 154 -216 72 -260 104 -268 192 -5 67 23 112 88 146 40 21 56 23
140 19 109 -5 165 -25 228 -81 l40 -36 62 67 63 67 -47 42 c-56 49 -133 90
-207 109 -76 20 -230 18 -299 -4z"/>
<path d="M81 1303 c-68 -34 -95 -114 -62 -187 50 -113 217 -104 252 13 22 74
-11 149 -77 177 -43 18 -71 17 -113 -3z"/>
<path d="M575 1302 c-51 -25 -75 -66 -75 -131 0 -42 5 -56 30 -85 88 -100 240
-43 240 91 0 102 -103 168 -195 125z"/>
<path d="M1070 1302 c-116 -58 -102 -229 22 -263 83 -22 157 33 166 122 6 68
-16 112 -73 139 -51 25 -70 25 -115 2z"/>
<path d="M1680 680 l0 -635 85 3 85 3 0 250 0 250 145 -3 145 -3 120 -245 119
-245 105 -3 105 -3 -124 257 c-69 141 -125 257 -125 259 0 1 17 7 38 13 21 6
59 26 85 43 103 68 153 187 145 345 -8 153 -69 247 -197 308 l-66 31 -333 5
-332 5 0 -635z m635 441 c74 -34 115 -102 115 -191 0 -87 -33 -145 -105 -183
-37 -20 -55 -22 -255 -22 l-215 0 -3 208 -2 207 212 0 c186 0 218 -3 253 -19z"/>
<path d="M90 813 c-32 -12 -71 -59 -81 -95 -13 -51 2 -106 41 -143 27 -26 39
-30 90 -30 51 0 63 4 90 30 90 86 43 233 -77 241 -26 2 -55 1 -63 -3z"/>
<path d="M563 800 c-87 -52 -83 -198 6 -245 122 -62 244 66 184 192 -32 69
-123 94 -190 53z"/>
<path d="M1053 800 c-87 -52 -83 -198 6 -245 95 -48 201 17 201 125 0 111
-114 177 -207 120z"/>
<path d="M80 308 c-36 -18 -49 -32 -64 -70 -17 -42 -18 -52 -7 -90 24 -80 100
-123 175 -98 101 33 127 180 43 244 -49 37 -93 41 -147 14z"/>
<path d="M585 316 c-54 -24 -85 -71 -85 -128 0 -67 27 -111 82 -133 94 -37
188 29 188 132 0 95 -102 166 -185 129z"/>
<path d="M1086 320 c-106 -32 -130 -178 -40 -249 41 -32 86 -36 137 -12 59 29
81 71 75 140 -6 58 -32 95 -85 117 -36 16 -46 16 -87 4z"/>
</g>
</svg>
